<svg width="93" height="100" viewBox="0 0 93 100" fill="none" xmlns="http://www.w3.org/2000/svg">
<g filter="url(#filter0_d_32_294)">
<rect x="16.667" y="14" width="60" height="60" rx="12" fill="white"/>
</g>
<rect x="16.667" y="14" width="60" height="60" rx="12" fill="#2C5FF6"/>
<path fill-rule="evenodd" clip-rule="evenodd" d="M46.667 65C58.265 65 67.667 55.598 67.667 44C67.667 32.402 58.265 23 46.667 23C35.069 23 25.667 32.402 25.667 44C25.667 55.598 35.069 65 46.667 65ZM40.5598 37.1429C40.1456 37.1429 39.8098 37.4786 39.8098 37.8929V50.1071C39.8098 50.5214 40.1456 50.8571 40.5598 50.8571H52.7741C53.1883 50.8571 53.5241 50.5214 53.5241 50.1071V37.8929C53.5241 37.4786 53.1883 37.1429 52.7741 37.1429H40.5598Z" fill="white"/>
<path d="M19.5475 96.1641C21.4137 96.1641 22.8834 95.3232 23.4986 93.9561C23.6012 93.7168 23.6559 93.498 23.6559 93.2656C23.6559 92.7188 23.273 92.3496 22.692 92.3496C22.2545 92.3496 21.9947 92.5342 21.7828 92.999C21.3385 93.9902 20.5592 94.4619 19.5201 94.4619C17.941 94.4619 16.9498 93.1631 16.9498 91.0576C16.9498 88.9795 17.9547 87.6738 19.5133 87.6738C20.4977 87.6738 21.3043 88.1797 21.7555 89.1846C21.9811 89.6631 22.275 89.8682 22.7398 89.8682C23.2867 89.8682 23.649 89.5195 23.649 88.9795C23.649 88.7334 23.5807 88.4668 23.4439 88.207C22.7672 86.7852 21.3385 85.9648 19.4928 85.9648C16.6559 85.9648 14.8443 87.8857 14.8443 91.0645C14.8443 94.25 16.6217 96.1641 19.5475 96.1641ZM28.9248 96.1572C31.1397 96.1572 32.5547 94.7422 32.5547 92.3291C32.5547 89.9502 31.1191 88.5146 28.9248 88.5146C26.7305 88.5146 25.2949 89.957 25.2949 92.3291C25.2949 94.7354 26.71 96.1572 28.9248 96.1572ZM28.9248 94.6328C27.9404 94.6328 27.3184 93.8057 27.3184 92.3359C27.3184 90.8799 27.9541 90.0391 28.9248 90.0391C29.8955 90.0391 30.5244 90.8799 30.5244 92.3359C30.5244 93.8057 29.9023 94.6328 28.9248 94.6328ZM35.2191 87.7627C35.8207 87.7627 36.2855 87.3047 36.2855 86.7305C36.2855 86.1494 35.8207 85.6982 35.2191 85.6982C34.6176 85.6982 34.1527 86.1494 34.1527 86.7305C34.1527 87.3047 34.6176 87.7627 35.2191 87.7627ZM35.2191 96.1436C35.8344 96.1436 36.2172 95.7539 36.2172 95.1045V89.5674C36.2172 88.918 35.8344 88.5215 35.2191 88.5215C34.5971 88.5215 34.2211 88.918 34.2211 89.5674V95.1045C34.2211 95.7539 34.5971 96.1436 35.2191 96.1436ZM39.1482 96.1436C39.7361 96.1436 40.1463 95.7881 40.1463 95.1045V91.7959C40.1463 90.8457 40.7137 90.1895 41.6092 90.1895C42.5047 90.1895 42.9559 90.7363 42.9559 91.6934V95.1045C42.9559 95.7881 43.366 96.1436 43.9539 96.1436C44.535 96.1436 44.952 95.7881 44.952 95.1045V91.2764C44.952 89.5605 44.0359 88.5352 42.409 88.5352C41.2811 88.5352 40.5428 89.0342 40.1531 89.9434H40.1121V89.5332C40.1121 88.9043 39.7156 88.5215 39.1141 88.5215C38.5125 88.5215 38.1502 88.9043 38.1502 89.5264V95.1045C38.1502 95.7881 38.5672 96.1436 39.1482 96.1436ZM47.842 96.1436C48.423 96.1436 48.8332 95.7949 48.8332 95.1318V94.7422H48.8742C49.2844 95.5967 50.0979 96.1162 51.1711 96.1162C53.0236 96.1162 54.1447 94.6943 54.1447 92.3359C54.1447 89.9707 53.0168 88.5557 51.1643 88.5557C50.1252 88.5557 49.3049 89.0752 48.9016 89.9434H48.8605V87.0312C48.8605 86.3477 48.4504 85.9854 47.8625 85.9854C47.2814 85.9854 46.8645 86.3477 46.8645 87.0312V95.1318C46.8645 95.8018 47.2678 96.1436 47.842 96.1436ZM50.4875 94.5098C49.5168 94.5098 48.8537 93.6621 48.8537 92.3359C48.8537 91.0234 49.5168 90.1553 50.4875 90.1553C51.4787 90.1553 52.1008 91.0029 52.1008 92.3359C52.1008 93.6758 51.4787 94.5098 50.4875 94.5098ZM57.9508 96.1162C58.8668 96.1162 59.7828 95.6582 60.193 94.8789H60.234V95.2549C60.275 95.8428 60.651 96.1436 61.191 96.1436C61.7584 96.1436 62.1617 95.8018 62.1617 95.1387V90.9619C62.1617 89.4854 60.9381 88.5146 59.0582 88.5146C57.5406 88.5146 56.3648 89.0547 56.023 89.9297C55.9547 90.0801 55.9205 90.2236 55.9205 90.3809C55.9205 90.832 56.2691 91.1465 56.7545 91.1465C57.0758 91.1465 57.3287 91.0234 57.5475 90.7773C57.9918 90.2031 58.3609 90.0049 58.9693 90.0049C59.7213 90.0049 60.1998 90.4014 60.1998 91.085V91.5703L58.3541 91.6797C56.5221 91.7891 55.4967 92.5615 55.4967 93.8945C55.4967 95.2139 56.5563 96.1162 57.9508 96.1162ZM58.607 94.6738C57.9371 94.6738 57.4859 94.332 57.4859 93.7852C57.4859 93.2656 57.9098 92.9307 58.6549 92.876L60.1998 92.7803V93.3135C60.1998 94.1064 59.482 94.6738 58.607 94.6738ZM67.041 96.1572C68.9756 96.1572 70.2812 95.2139 70.2812 93.7578C70.2812 92.6641 69.6387 92.0898 68.0801 91.7617L66.8701 91.502C66.1387 91.3447 65.8516 91.0918 65.8516 90.709C65.8516 90.2373 66.3232 89.916 67 89.916C67.7178 89.916 68.1143 90.2578 68.4629 90.7021C68.6406 90.9141 68.9277 91.0098 69.1875 91.0098C69.7002 91.0098 69.9531 90.7295 69.9531 90.3262C69.9531 90.2305 69.9326 90.1348 69.9053 90.0322C69.666 89.2051 68.5518 88.5146 67.0342 88.5146C65.1338 88.5146 63.9238 89.417 63.9238 90.8184C63.9238 91.9053 64.6484 92.6367 66.084 92.9443L67.3145 93.2041C68.0322 93.3613 68.2852 93.5732 68.2852 93.9697C68.2852 94.4551 67.8135 94.7559 67.0889 94.7559C66.3301 94.7559 65.8789 94.5234 65.4893 94.0107C65.2158 93.7031 64.9424 93.5596 64.6211 93.5596C64.1562 93.5596 63.8145 93.8672 63.8145 94.3252C63.8145 94.4346 63.8418 94.5645 63.8896 94.6943C64.2383 95.5557 65.3594 96.1572 67.041 96.1572ZM75.2426 96.1572C76.6576 96.1572 77.7924 95.624 78.2777 94.7217C78.3666 94.5576 78.4145 94.3936 78.4145 94.2363C78.4145 93.7783 78.0658 93.5049 77.6352 93.5049C77.3754 93.5049 77.1977 93.5801 76.9857 93.7988C76.4457 94.4346 75.9672 94.6807 75.2357 94.6807C74.224 94.6807 73.5678 93.9697 73.5678 92.8828V92.7939H77.7514C78.3051 92.7939 78.6195 92.4795 78.6195 91.9258C78.6195 89.9365 77.225 88.5146 75.1469 88.5146C72.9799 88.5146 71.6059 90.0117 71.6059 92.3701C71.6059 94.7422 72.9525 96.1572 75.2426 96.1572ZM73.5883 91.5703C73.6566 90.6338 74.2924 89.9912 75.1674 89.9912C76.0424 89.9912 76.6576 90.6133 76.6986 91.5703H73.5883Z" fill="white"/>
<defs>
<filter id="filter0_d_32_294" x="0.666992" y="0" width="92" height="92" filterUnits="userSpaceOnUse" color-interpolation-filters="sRGB">
<feFlood flood-opacity="0" result="BackgroundImageFix"/>
<feColorMatrix in="SourceAlpha" type="matrix" values="0 0 0 0 0 0 0 0 0 0 0 0 0 0 0 0 0 0 127 0" result="hardAlpha"/>
<feOffset dy="2"/>
<feGaussianBlur stdDeviation="8"/>
<feComposite in2="hardAlpha" operator="out"/>
<feColorMatrix type="matrix" values="0 0 0 0 0 0 0 0 0 0 0 0 0 0 0 0 0 0 0.16 0"/>
<feBlend mode="normal" in2="BackgroundImageFix" result="effect1_dropShadow_32_294"/>
<feBlend mode="normal" in="SourceGraphic" in2="effect1_dropShadow_32_294" result="shape"/>
</filter>
</defs>
</svg>
