<svg width="93" height="100" viewBox="0 0 93 100" fill="none" xmlns="http://www.w3.org/2000/svg">
<g filter="url(#filter0_d_32_293)">
<rect x="16.3333" y="14" width="60" height="60" rx="12" fill="white"/>
</g>
<rect x="16.3333" y="14" width="60" height="60" rx="12" fill="white"/>
<path d="M67.9528 20.6855L49.2146 34.6027L52.6798 26.3918L67.9528 20.6855Z" fill="#E2761B" stroke="#E2761B" stroke-width="0.0878845" stroke-linecap="round" stroke-linejoin="round"/>
<path d="M24.6948 20.6855L43.2824 34.7345L39.9867 26.3918L24.6948 20.6855Z" fill="#E4761B" stroke="#E4761B" stroke-width="0.0878845" stroke-linecap="round" stroke-linejoin="round"/>
<path d="M61.211 52.9454L56.2205 60.5914L66.8984 63.5292L69.9681 53.1149L61.211 52.9454Z" fill="#E4761B" stroke="#E4761B" stroke-width="0.0878845" stroke-linecap="round" stroke-linejoin="round"/>
<path d="M22.7175 53.1149L25.7684 63.5292L36.4463 60.5914L31.4558 52.9454L22.7175 53.1149Z" fill="#E4761B" stroke="#E4761B" stroke-width="0.0878845" stroke-linecap="round" stroke-linejoin="round"/>
<path d="M35.8437 40.0265L32.8682 44.5274L43.4708 44.9982L43.0942 33.6046L35.8437 40.0265Z" fill="#E4761B" stroke="#E4761B" stroke-width="0.0878845" stroke-linecap="round" stroke-linejoin="round"/>
<path d="M56.8041 40.0265L49.4594 33.4728L49.2146 44.9982L59.7984 44.5274L56.8041 40.0265Z" fill="#E4761B" stroke="#E4761B" stroke-width="0.0878845" stroke-linecap="round" stroke-linejoin="round"/>
<path d="M36.4463 60.5913L42.8116 57.484L37.3126 53.1902L36.4463 60.5913Z" fill="#E4761B" stroke="#E4761B" stroke-width="0.0878845" stroke-linecap="round" stroke-linejoin="round"/>
<path d="M49.8362 57.484L56.2204 60.5913L55.3352 53.1902L49.8362 57.484Z" fill="#E4761B" stroke="#E4761B" stroke-width="0.0878845" stroke-linecap="round" stroke-linejoin="round"/>
<path d="M56.2204 60.5914L49.8362 57.484L50.3447 61.646L50.2882 63.3974L56.2204 60.5914Z" fill="#D7C1B3" stroke="#D7C1B3" stroke-width="0.0878845" stroke-linecap="round" stroke-linejoin="round"/>
<path d="M36.4463 60.5914L42.3785 63.3974L42.3408 61.646L42.8116 57.484L36.4463 60.5914Z" fill="#D7C1B3" stroke="#D7C1B3" stroke-width="0.0878845" stroke-linecap="round" stroke-linejoin="round"/>
<path d="M42.4726 50.4407L37.1619 48.8776L40.9095 47.1638L42.4726 50.4407Z" fill="#233447" stroke="#233447" stroke-width="0.0878845" stroke-linecap="round" stroke-linejoin="round"/>
<path d="M50.175 50.4407L51.7381 47.1638L55.5046 48.8776L50.175 50.4407Z" fill="#233447" stroke="#233447" stroke-width="0.0878845" stroke-linecap="round" stroke-linejoin="round"/>
<path d="M36.4462 60.5914L37.3501 52.9454L31.4556 53.1149L36.4462 60.5914Z" fill="#CD6116" stroke="#CD6116" stroke-width="0.0878845" stroke-linecap="round" stroke-linejoin="round"/>
<path d="M55.3162 52.9454L56.2201 60.5914L61.2107 53.1149L55.3162 52.9454Z" fill="#CD6116" stroke="#CD6116" stroke-width="0.0878845" stroke-linecap="round" stroke-linejoin="round"/>
<path d="M59.7984 44.5273L49.2146 44.9982L50.1939 50.4407L51.757 47.1639L55.5235 48.8776L59.7984 44.5273Z" fill="#CD6116" stroke="#CD6116" stroke-width="0.0878845" stroke-linecap="round" stroke-linejoin="round"/>
<path d="M37.1617 48.8776L40.9282 47.1639L42.4724 50.4407L43.4706 44.9982L32.8679 44.5273L37.1617 48.8776Z" fill="#CD6116" stroke="#CD6116" stroke-width="0.0878845" stroke-linecap="round" stroke-linejoin="round"/>
<path d="M32.8682 44.5273L37.3126 53.1902L37.1619 48.8776L32.8682 44.5273Z" fill="#E4751F" stroke="#E4751F" stroke-width="0.0878845" stroke-linecap="round" stroke-linejoin="round"/>
<path d="M55.5235 48.8776L55.3352 53.1902L59.7985 44.5273L55.5235 48.8776Z" fill="#E4751F" stroke="#E4751F" stroke-width="0.0878845" stroke-linecap="round" stroke-linejoin="round"/>
<path d="M43.4708 44.9982L42.4727 50.4407L43.7156 56.8626L43.9981 48.4068L43.4708 44.9982Z" fill="#E4751F" stroke="#E4751F" stroke-width="0.0878845" stroke-linecap="round" stroke-linejoin="round"/>
<path d="M49.2148 44.9982L48.7063 48.388L48.9323 56.8626L50.1941 50.4407L49.2148 44.9982Z" fill="#E4751F" stroke="#E4751F" stroke-width="0.0878845" stroke-linecap="round" stroke-linejoin="round"/>
<path d="M50.1939 50.4407L48.9321 56.8625L49.8361 57.484L55.3351 53.1902L55.5235 48.8776L50.1939 50.4407Z" fill="#F6851B" stroke="#F6851B" stroke-width="0.0878845" stroke-linecap="round" stroke-linejoin="round"/>
<path d="M37.1619 48.8776L37.3125 53.1902L42.8116 57.484L43.7155 56.8625L42.4726 50.4407L37.1619 48.8776Z" fill="#F6851B" stroke="#F6851B" stroke-width="0.0878845" stroke-linecap="round" stroke-linejoin="round"/>
<path d="M50.2881 63.3973L50.3446 61.6459L49.8738 61.2316H42.774L42.3408 61.6459L42.3785 63.3973L36.4463 60.5913L38.5179 62.2862L42.7175 65.2052H49.9303L54.1487 62.2862L56.2203 60.5913L50.2881 63.3973Z" fill="#C0AD9E" stroke="#C0AD9E" stroke-width="0.0878845" stroke-linecap="round" stroke-linejoin="round"/>
<path d="M49.8361 57.484L48.9322 56.8625H43.7156L42.8116 57.484L42.3408 61.646L42.774 61.2317H49.8738L50.3446 61.646L49.8361 57.484Z" fill="#161616" stroke="#161616" stroke-width="0.0878845" stroke-linecap="round" stroke-linejoin="round"/>
<path d="M68.7439 35.5066L70.3447 27.823L67.9529 20.6855L49.8362 34.1319L56.8042 40.0264L66.6535 42.9078L68.8381 40.3654L67.8964 39.6874L69.403 38.3127L68.2354 37.4087L69.742 36.2599L68.7439 35.5066Z" fill="#763D16" stroke="#763D16" stroke-width="0.0878845" stroke-linecap="round" stroke-linejoin="round"/>
<path d="M22.322 27.823L23.9228 35.5066L22.9058 36.2599L24.4124 37.4087L23.2636 38.3127L24.7702 39.6874L23.8286 40.3654L25.9943 42.9078L35.8437 40.0264L42.8117 34.1319L24.6949 20.6855L22.322 27.823Z" fill="#763D16" stroke="#763D16" stroke-width="0.0878845" stroke-linecap="round" stroke-linejoin="round"/>
<path d="M66.6535 42.9077L56.8041 40.0264L59.7985 44.5273L55.3352 53.1902L61.2109 53.1149H69.968L66.6535 42.9077Z" fill="#F6851B" stroke="#F6851B" stroke-width="0.0878845" stroke-linecap="round" stroke-linejoin="round"/>
<path d="M35.8437 40.0264L25.9944 42.9077L22.7175 53.1149H31.4558L37.3126 53.1902L32.8682 44.5273L35.8437 40.0264Z" fill="#F6851B" stroke="#F6851B" stroke-width="0.0878845" stroke-linecap="round" stroke-linejoin="round"/>
<path d="M49.2147 44.9981L49.8362 34.1318L52.6987 26.3917H39.9868L42.8117 34.1318L43.4708 44.9981L43.6968 48.4256L43.7156 56.8625H48.9322L48.9699 48.4256L49.2147 44.9981Z" fill="#F6851B" stroke="#F6851B" stroke-width="0.0878845" stroke-linecap="round" stroke-linejoin="round"/>
<path d="M18.6797 96.1436C19.3292 96.1436 19.712 95.7471 19.712 95.0703V92.3906H21.4688L23.1094 95.3643C23.4444 95.9658 23.67 96.1436 24.1622 96.1436C24.7637 96.1436 25.2012 95.7471 25.2012 95.2002C25.2012 94.9609 25.1534 94.7832 24.9825 94.4893L23.5606 92.0283C24.6475 91.5635 25.2559 90.5107 25.2559 89.2803C25.2559 87.332 23.9571 86.1357 21.6875 86.1357H18.6797C18.0303 86.1357 17.6475 86.5322 17.6475 87.209V95.0703C17.6475 95.7471 18.0372 96.1436 18.6797 96.1436ZM19.712 90.8936V87.749H21.4688C22.4942 87.749 23.1368 88.3643 23.1368 89.3213C23.1368 90.2988 22.5284 90.8936 21.4893 90.8936H19.712ZM29.1713 96.1162C30.0874 96.1162 31.0034 95.6582 31.4135 94.8789H31.4545V95.2549C31.4956 95.8428 31.8715 96.1436 32.4116 96.1436C32.979 96.1436 33.3823 95.8018 33.3823 95.1387V90.9619C33.3823 89.4854 32.1586 88.5146 30.2788 88.5146C28.7612 88.5146 27.5854 89.0547 27.2436 89.9297C27.1752 90.0801 27.1411 90.2236 27.1411 90.3809C27.1411 90.832 27.4897 91.1465 27.975 91.1465C28.2963 91.1465 28.5493 91.0234 28.768 90.7773C29.2124 90.2031 29.5815 90.0049 30.1899 90.0049C30.9418 90.0049 31.4204 90.4014 31.4204 91.085V91.5703L29.5747 91.6797C27.7426 91.7891 26.7172 92.5615 26.7172 93.8945C26.7172 95.2139 27.7768 96.1162 29.1713 96.1162ZM29.8276 94.6738C29.1577 94.6738 28.7065 94.332 28.7065 93.7852C28.7065 93.2656 29.1303 92.9307 29.8754 92.876L31.4204 92.7803V93.3135C31.4204 94.1064 30.7026 94.6738 29.8276 94.6738ZM36.3065 87.7627C36.9081 87.7627 37.3729 87.3047 37.3729 86.7305C37.3729 86.1494 36.9081 85.6982 36.3065 85.6982C35.7049 85.6982 35.2401 86.1494 35.2401 86.7305C35.2401 87.3047 35.7049 87.7627 36.3065 87.7627ZM36.3065 96.1436C36.9217 96.1436 37.3045 95.7539 37.3045 95.1045V89.5674C37.3045 88.918 36.9217 88.5215 36.3065 88.5215C35.6844 88.5215 35.3084 88.918 35.3084 89.5674V95.1045C35.3084 95.7539 35.6844 96.1436 36.3065 96.1436ZM40.2356 96.1436C40.8235 96.1436 41.2336 95.7881 41.2336 95.1045V91.7959C41.2336 90.8457 41.801 90.1895 42.6965 90.1895C43.592 90.1895 44.0432 90.7363 44.0432 91.6934V95.1045C44.0432 95.7881 44.4534 96.1436 45.0413 96.1436C45.6223 96.1436 46.0393 95.7881 46.0393 95.1045V91.2764C46.0393 89.5605 45.1233 88.5352 43.4963 88.5352C42.3684 88.5352 41.6301 89.0342 41.2405 89.9434H41.1995V89.5332C41.1995 88.9043 40.803 88.5215 40.2014 88.5215C39.5999 88.5215 39.2375 88.9043 39.2375 89.5264V95.1045C39.2375 95.7881 39.6545 96.1436 40.2356 96.1436ZM48.9293 96.1436C49.5104 96.1436 49.9206 95.7949 49.9206 95.1318V94.7422H49.9616C50.3717 95.5967 51.1852 96.1162 52.2584 96.1162C54.111 96.1162 55.2321 94.6943 55.2321 92.3359C55.2321 89.9707 54.1041 88.5557 52.2516 88.5557C51.2125 88.5557 50.3922 89.0752 49.9889 89.9434H49.9479V87.0312C49.9479 86.3477 49.5377 85.9854 48.9499 85.9854C48.3688 85.9854 47.9518 86.3477 47.9518 87.0312V95.1318C47.9518 95.8018 48.3551 96.1436 48.9293 96.1436ZM51.5749 94.5098C50.6041 94.5098 49.9411 93.6621 49.9411 92.3359C49.9411 91.0234 50.6041 90.1553 51.5749 90.1553C52.5661 90.1553 53.1881 91.0029 53.1881 92.3359C53.1881 93.6758 52.5661 94.5098 51.5749 94.5098ZM60.2344 96.1572C62.4493 96.1572 63.8643 94.7422 63.8643 92.3291C63.8643 89.9502 62.4288 88.5146 60.2344 88.5146C58.0401 88.5146 56.6045 89.957 56.6045 92.3291C56.6045 94.7354 58.0196 96.1572 60.2344 96.1572ZM60.2344 94.6328C59.25 94.6328 58.628 93.8057 58.628 92.3359C58.628 90.8799 59.2637 90.0391 60.2344 90.0391C61.2051 90.0391 61.834 90.8799 61.834 92.3359C61.834 93.8057 61.212 94.6328 60.2344 94.6328ZM67.8891 96.1436C68.6 96.1436 68.9965 95.8223 69.1674 95.0977L70.2749 90.8184H70.3159L71.4301 95.084C71.601 95.8291 71.9907 96.1436 72.7221 96.1436C73.4125 96.1436 73.7954 95.8154 74.0004 95.0908L75.477 89.9775C75.5522 89.7178 75.5864 89.5537 75.5864 89.3691C75.5864 88.8701 75.1967 88.5215 74.643 88.5215C74.1508 88.5215 73.8295 88.8223 73.7202 89.3555L72.6264 94.1064H72.5854L71.4438 89.4375C71.3139 88.8428 70.9243 88.5215 70.3295 88.5215C69.7211 88.5215 69.3315 88.8428 69.2016 89.4375L68.0668 94.1064H68.0258L66.9389 89.3691C66.8227 88.8223 66.5014 88.5215 66.0024 88.5215C65.4418 88.5215 65.0385 88.877 65.0385 89.376C65.0385 89.5674 65.0727 89.7314 65.1479 89.9912L66.6245 95.0977C66.8364 95.8223 67.1987 96.1436 67.8891 96.1436Z" fill="white"/>
<defs>
<filter id="filter0_d_32_293" x="0.333252" y="0" width="91.9998" height="92" filterUnits="userSpaceOnUse" color-interpolation-filters="sRGB">
<feFlood flood-opacity="0" result="BackgroundImageFix"/>
<feColorMatrix in="SourceAlpha" type="matrix" values="0 0 0 0 0 0 0 0 0 0 0 0 0 0 0 0 0 0 127 0" result="hardAlpha"/>
<feOffset dy="2"/>
<feGaussianBlur stdDeviation="8"/>
<feComposite in2="hardAlpha" operator="out"/>
<feColorMatrix type="matrix" values="0 0 0 0 0 0 0 0 0 0 0 0 0 0 0 0 0 0 0.16 0"/>
<feBlend mode="normal" in2="BackgroundImageFix" result="effect1_dropShadow_32_293"/>
<feBlend mode="normal" in="SourceGraphic" in2="effect1_dropShadow_32_293" result="shape"/>
</filter>
</defs>
</svg>
