<svg width="406" height="256" viewBox="0 0 406 256" fill="none" xmlns="http://www.w3.org/2000/svg">
<g opacity="0.3">
<path d="M33.9198 54.812L7.31087 51.349L2.90347 85.215L15.4823 86.852L16.5148 78.9177L30.545 80.7437C38.2374 81.7448 44.216 77.0125 45.1983 69.4652C46.1805 61.918 41.6122 55.8131 33.9198 54.812ZM29.5112 69.7853L17.9 68.2741L18.5045 63.6297L30.1157 65.1408C31.3735 65.3045 32.9217 65.506 32.6195 67.8282C32.3172 70.1504 30.7691 69.949 29.5112 69.7853Z" fill="#E6EA25"/>
<path d="M65.1357 62.5466C59.7425 63.0373 53.5235 64.681 47.8654 67.1064L52.4068 75.0214C57.6453 73.369 61.89 72.6398 65.6312 72.2994C69.5182 71.9457 73.2241 71.7554 73.5424 75.2537C70.7817 74.5251 67.6235 74.2736 63.5422 74.645C55.0394 75.4187 46.475 78.2066 47.1647 85.7862C47.7394 92.1025 53.7865 93.9527 60.443 93.347C65.496 92.8873 70.4828 91.6986 74.7008 87.9835L75.0235 91.5304L86.6844 90.4693L85.3714 76.0389C84.2617 64.9213 77.0882 61.459 65.1357 62.5466ZM74.157 82.0073C71.3567 83.5359 67.1694 84.8967 63.2339 85.2548C60.2701 85.5245 58.8875 85.4053 58.7416 83.8019C58.5736 81.9556 60.8616 81.2575 66.2548 80.7668C69.6073 80.4617 72.1559 80.4748 74.0464 80.7926L74.157 82.0073Z" fill="#E6EA25"/>
<path d="M110.683 58.407C105.921 58.8403 102.074 60.709 99.8483 64.7818L99.4062 59.923L87.7453 60.9841L90.398 90.1364L102.059 89.0754L100.626 73.3331C103.643 69.3354 108.117 68.4384 112.247 68.0626C114.385 67.868 116.598 67.9606 119.381 68.3933L118.497 58.6758C116.509 58.3668 114.084 58.0976 110.683 58.407Z" fill="#E6EA25"/>
<path d="M254.253 39.6225C257.214 51.1528 264.871 55.0801 279.425 51.3431C292.704 47.9338 298.355 41.4962 296.181 30.8721L283.611 34.0995C283.952 37.3869 281.954 39.6124 276.756 40.947C269.526 42.8034 267.449 40.0121 266.539 36.468C265.642 32.9711 266.082 29.584 273.359 27.7156C278.557 26.3809 281.367 27.3216 282.641 30.3191L295.211 27.0917C292.009 16.7818 283.921 13.9222 270.69 17.3194C256.135 21.0564 251.305 28.1395 254.253 39.6225Z" fill="#E6EA25"/>
<path d="M300.478 8.24981V47.2802H312.188V8.24981H300.478Z" fill="#E6EA25"/>
<path d="M347.399 21.6587L343.381 36.9469C340.606 38.4875 336.682 39.0203 333.332 38.1399C328.236 36.8007 327.036 34.2658 328.313 29.4056L331.45 17.4676L320.125 14.4916L315.773 31.0539C313.082 41.2932 319.781 45.1722 326.151 46.8462C332.097 48.4085 336.934 47.6619 340.951 46.1954L339.959 49.9702L351.284 52.9462L358.724 24.6347L347.399 21.6587Z" fill="#E6EA25"/>
<path d="M385.528 31.1735C381.14 30.0204 376.452 30.2008 372.685 32.4395L376.182 19.1331L364.857 16.1571L354.938 53.9058L366.262 56.8818L367.279 53.0125C369.458 56.8136 373.452 59.2756 377.84 60.4288C385.154 62.3507 394.16 61.2873 397.161 49.8683C400.162 38.4493 392.842 33.0955 385.528 31.1735ZM376.545 49.9996C371.496 48.6728 368.891 46.8784 369.982 42.726C371.073 38.5737 374.224 38.292 379.273 39.6187C384.322 40.9455 386.928 42.74 385.837 46.8923C384.745 51.0447 381.594 51.3264 376.545 49.9996Z" fill="#E6EA25"/>
<path d="M33.9198 127.991L7.31087 124.528L2.90347 158.394L15.4823 160.031L16.5148 152.097L30.545 153.923C38.2374 154.924 44.216 150.191 45.1983 142.644C46.1805 135.097 41.6122 128.992 33.9198 127.991ZM29.5112 142.964L17.9 141.453L18.5045 136.809L30.1157 138.32C31.3735 138.483 32.9217 138.685 32.6195 141.007C32.3172 143.329 30.7691 143.128 29.5112 142.964Z" fill="#EA4525"/>
<path d="M65.1357 135.726C59.7425 136.216 53.5235 137.86 47.8654 140.285L52.4068 148.2C57.6453 146.548 61.89 145.819 65.6312 145.478C69.5182 145.125 73.2241 144.934 73.5424 148.433C70.7817 147.704 67.6235 147.453 63.5422 147.824C55.0394 148.598 46.475 151.386 47.1647 158.965C47.7394 165.281 53.7865 167.132 60.443 166.526C65.496 166.066 70.4828 164.878 74.7008 161.163L75.0235 164.709L86.6844 163.648L85.3714 149.218C84.2617 138.1 77.0882 134.638 65.1357 135.726ZM74.157 155.186C71.3567 156.715 67.1694 158.076 63.2339 158.434C60.2701 158.703 58.8875 158.584 58.7416 156.981C58.5736 155.135 60.8616 154.436 66.2548 153.946C69.6073 153.641 72.1559 153.654 74.0464 153.972L74.157 155.186Z" fill="#EA4525"/>
<path d="M110.683 131.586C105.921 132.019 102.074 133.888 99.8483 137.961L99.4062 133.102L87.7453 134.163L90.398 163.315L102.059 162.254L100.626 146.512C103.643 142.514 108.117 141.617 112.247 141.242C114.385 141.047 116.598 141.14 119.381 141.572L118.497 131.855C116.509 131.546 114.084 131.277 110.683 131.586Z" fill="#EA4525"/>
<path d="M254.253 112.801C257.214 124.332 264.871 128.259 279.425 124.522C292.704 121.113 298.355 114.675 296.181 104.051L283.611 107.278C283.952 110.566 281.954 112.791 276.756 114.126C269.526 115.982 267.449 113.191 266.539 109.647C265.642 106.15 266.082 102.763 273.359 100.895C278.557 99.5599 281.367 100.501 282.641 103.498L295.211 100.271C292.009 89.9607 283.921 87.1011 270.69 90.4984C256.135 94.2353 251.305 101.318 254.253 112.801Z" fill="#EA4525"/>
<path d="M300.478 81.4288V120.459H312.188V81.4288H300.478Z" fill="#EA4525"/>
<path d="M347.399 94.8377L343.381 110.126C340.606 111.666 336.682 112.199 333.332 111.319C328.236 109.98 327.036 107.445 328.313 102.585L331.45 90.6465L320.125 87.6706L315.773 104.233C313.082 114.472 319.781 118.351 326.151 120.025C332.097 121.587 336.934 120.841 340.951 119.374L339.959 123.149L351.284 126.125L358.724 97.8136L347.399 94.8377Z" fill="#EA4525"/>
<path d="M385.528 104.352C381.14 103.199 376.452 103.38 372.685 105.618L376.182 92.312L364.857 89.3361L354.938 127.085L366.262 130.061L367.279 126.191C369.458 129.993 373.452 132.455 377.84 133.608C385.154 135.53 394.16 134.466 397.161 123.047C400.162 111.628 392.842 106.274 385.528 104.352ZM376.545 123.179C371.496 121.852 368.891 120.057 369.982 115.905C371.073 111.753 374.224 111.471 379.273 112.798C384.322 114.124 386.928 115.919 385.837 120.071C384.745 124.224 381.594 124.505 376.545 123.179Z" fill="#EA4525"/>
<path d="M33.9198 201.177L7.31087 197.714L2.90347 231.58L15.4823 233.217L16.5148 225.283L30.545 227.109C38.2374 228.11 44.216 223.378 45.1983 215.83C46.1805 208.283 41.6122 202.178 33.9198 201.177ZM29.5112 216.15L17.9 214.639L18.5045 209.995L30.1157 211.506C31.3735 211.67 32.9217 211.871 32.6195 214.193C32.3172 216.516 30.7691 216.314 29.5112 216.15Z" fill="#2925EA"/>
<path d="M65.1357 208.912C59.7425 209.403 53.5235 211.046 47.8654 213.472L52.4068 221.387C57.6453 219.734 61.89 219.005 65.6312 218.665C69.5182 218.311 73.2241 218.121 73.5424 221.619C70.7817 220.89 67.6235 220.639 63.5422 221.01C55.0394 221.784 46.475 224.572 47.1647 232.151C47.7394 238.468 53.7865 240.318 60.443 239.712C65.496 239.252 70.4828 238.064 74.7008 234.349L75.0235 237.896L86.6844 236.835L85.3714 222.404C84.2617 211.287 77.0882 207.824 65.1357 208.912ZM74.157 228.373C71.3567 229.901 67.1694 231.262 63.2339 231.62C60.2701 231.89 58.8875 231.771 58.7416 230.167C58.5736 228.321 60.8616 227.623 66.2548 227.132C69.6073 226.827 72.1559 226.84 74.0464 227.158L74.157 228.373Z" fill="#2925EA"/>
<path d="M110.683 204.776C105.921 205.209 102.074 207.078 99.8483 211.151L99.4062 206.292L87.7453 207.353L90.398 236.505L102.059 235.444L100.626 219.702C103.643 215.704 108.117 214.807 112.247 214.432C114.385 214.237 116.598 214.33 119.381 214.762L118.497 205.045C116.509 204.736 114.084 204.467 110.683 204.776Z" fill="#2925EA"/>
<path d="M151.212 65.0029L150.328 55.2855L138.424 56.3687L137.717 48.5947L126.321 52.571L126.763 57.4298L120.884 57.9647L121.768 67.6822L127.647 67.1472L128.633 77.9821C129.208 84.2985 133.93 86.6612 142.967 85.8389C146.806 85.4896 150.233 84.9328 152.958 84.1949L152.096 74.7204C148.788 75.5113 147.33 75.644 144.707 75.8827C141.305 76.1922 140.108 74.8804 139.856 72.1109L139.308 66.0861L151.212 65.0029Z" fill="#E6EA25"/>
<path d="M178.881 46.4398L176.049 68.1714L162.767 50.5772L150.481 53.7317L169.574 79.0516L174.772 77.717L173.08 90.7441L185.367 87.5895L191.167 43.2852L178.881 46.4398Z" fill="#E6EA25"/>
<path d="M204.779 34.748L192.493 37.9026L200.986 70.9812L213.272 67.8266L204.779 34.748Z" fill="#E6EA25"/>
<path d="M234.095 31.7556C228.141 33.2843 224.279 36.2908 221.483 39.5271L220.512 35.7467L209.171 38.6586L216.451 67.0117L227.792 64.0998L223.861 48.7891C225.536 46.0924 228.704 43.7175 232.059 42.8561C237.163 41.5457 239.445 43.176 240.695 48.0433L243.764 59.9989L255.106 57.0869L250.847 40.5004C248.214 30.246 240.474 30.1176 234.095 31.7556Z" fill="#E6EA25"/>
<path d="M151.212 138.183L150.328 128.466L138.424 129.549L137.717 121.775L126.321 125.751L126.763 130.61L120.884 131.145L121.768 140.862L127.647 140.328L128.633 151.162C129.208 157.479 133.93 159.842 142.967 159.019C146.806 158.67 150.233 158.113 152.958 157.375L152.096 147.901C148.788 148.692 147.33 148.824 144.707 149.063C141.305 149.372 140.108 148.061 139.856 145.291L139.308 139.266L151.212 138.183Z" fill="#EA4525"/>
<path d="M178.881 119.618L176.049 141.35L162.767 123.756L150.481 126.91L169.574 152.23L174.772 150.895L173.08 163.923L185.367 160.768L191.167 116.464L178.881 119.618Z" fill="#EA4525"/>
<path d="M204.779 107.928L192.493 111.083L200.986 144.161L213.272 141.007L204.779 107.928Z" fill="#EA4525"/>
<path d="M234.095 104.934C228.141 106.463 224.279 109.469 221.483 112.705L220.512 108.925L209.171 111.837L216.451 140.19L227.792 137.278L223.861 121.967C225.536 119.271 228.704 116.896 232.059 116.034C237.163 114.724 239.445 116.354 240.695 121.222L243.764 133.177L255.106 130.265L250.847 113.679C248.214 103.424 240.474 103.296 234.095 104.934Z" fill="#EA4525"/>
<path d="M151.212 211.367L150.328 201.65L138.424 202.733L137.717 194.959L126.321 198.935L126.763 203.794L120.884 204.329L121.768 214.047L127.647 213.512L128.633 224.347C129.208 230.663 133.93 233.026 142.967 232.203C146.806 231.854 150.233 231.297 152.958 230.559L152.096 221.085C148.788 221.876 147.33 222.008 144.707 222.247C141.305 222.557 140.108 221.245 139.856 218.475L139.308 212.451L151.212 211.367Z" fill="#2925EA"/>
<path d="M178.881 192.806L176.049 214.538L162.767 196.943L150.481 200.098L169.574 225.418L174.772 224.083L173.08 237.11L185.367 233.956L191.167 189.652L178.881 192.806Z" fill="#2925EA"/>
<path d="M204.779 181.114L192.493 184.269L200.986 217.347L213.272 214.193L204.779 181.114Z" fill="#2925EA"/>
<path d="M234.095 178.124C228.141 179.653 224.279 182.659 221.483 185.895L220.512 182.115L209.171 185.027L216.451 213.38L227.792 210.468L223.861 195.157C225.536 192.461 228.704 190.086 232.059 189.224C237.163 187.914 239.445 189.544 240.695 194.411L243.764 206.367L255.106 203.455L250.847 186.869C248.214 176.614 240.474 176.486 234.095 178.124Z" fill="#2925EA"/>
<path d="M254.253 185.991C257.214 197.522 264.871 201.449 279.425 197.712C292.704 194.303 298.355 187.865 296.181 177.241L283.611 180.468C283.952 183.756 281.954 185.981 276.756 187.316C269.526 189.172 267.449 186.381 266.539 182.837C265.642 179.34 266.082 175.953 273.359 174.084C278.557 172.75 281.367 173.69 282.641 176.688L295.211 173.461C292.009 163.151 283.921 160.291 270.69 163.688C256.135 167.425 251.305 174.508 254.253 185.991Z" fill="#2925EA"/>
<path d="M300.478 154.613V193.643H312.188V154.613H300.478Z" fill="#2925EA"/>
<path d="M347.399 168.028L343.381 183.316C340.606 184.857 336.682 185.389 333.332 184.509C328.236 183.17 327.036 180.635 328.313 175.775L331.45 163.837L320.125 160.861L315.773 177.423C313.082 187.662 319.781 191.541 326.151 193.215C332.097 194.778 336.934 194.031 340.951 192.564L339.959 196.339L351.284 199.315L358.724 171.004L347.399 168.028Z" fill="#2925EA"/>
<path d="M385.528 177.541C381.14 176.387 376.452 176.568 372.685 178.807L376.182 165.5L364.857 162.524L354.938 200.273L366.262 203.249L367.279 199.38C369.458 203.181 373.452 205.643 377.84 206.796C385.154 208.718 394.16 207.654 397.161 196.235C400.162 184.816 392.842 179.463 385.528 177.541ZM376.545 196.367C371.496 195.04 368.891 193.245 369.982 189.093C371.073 184.941 374.224 184.659 379.273 185.986C384.322 187.313 386.928 189.107 385.837 193.259C384.745 197.412 381.594 197.693 376.545 196.367Z" fill="#2925EA"/>
</g>
<path d="M78.3 101.92C78.3 121.44 88.86 130.8 113.5 130.8C135.98 130.8 147.58 122.88 148.46 105.12H127.18C126.38 110.48 122.3 113.2 113.5 113.2C101.26 113.2 99.1 107.92 99.1 101.92C99.1 96 101.18 90.8 113.5 90.8C122.3 90.8 126.38 93.44 127.18 98.72H148.46C147.58 81.04 135.9 73.2 113.5 73.2C88.86 73.2 78.3 82.48 78.3 101.92ZM157.297 66V130H176.497V66H157.297ZM232.359 82V107.92C228.599 111.52 222.599 114 216.919 114C208.279 114 205.319 110.48 205.319 102.24V82H186.119V110.08C186.119 127.44 198.359 130.8 209.159 130.8C219.239 130.8 226.599 127.6 232.359 123.6V130H251.559V82H232.359ZM300.231 81.2C292.791 81.2 285.431 83.44 280.391 88.56V66H261.191V130H280.391V123.44C285.431 128.56 292.791 130.8 300.231 130.8C312.631 130.8 326.471 125.36 326.471 106C326.471 86.64 312.631 81.2 300.231 81.2ZM293.831 114.8C285.271 114.8 280.391 113.04 280.391 106C280.391 98.96 285.271 97.2 293.831 97.2C302.391 97.2 307.271 98.96 307.271 106C307.271 113.04 302.391 114.8 293.831 114.8Z" fill="white"/>
<path d="M47.11 170.139C47.11 172.823 48.562 174.11 51.95 174.11C55.041 174.11 56.636 173.021 56.757 170.579H53.831C53.721 171.316 53.16 171.69 51.95 171.69C50.267 171.69 49.97 170.964 49.97 170.139C49.97 169.325 50.256 168.61 51.95 168.61C53.16 168.61 53.721 168.973 53.831 169.699H56.757C56.636 167.268 55.03 166.19 51.95 166.19C48.562 166.19 47.11 167.466 47.11 170.139ZM58.4121 165.2V174H61.0521V165.2H58.4121ZM69.1731 167.4V170.964C68.6561 171.459 67.8311 171.8 67.0501 171.8C65.8621 171.8 65.4551 171.316 65.4551 170.183V167.4H62.8151V171.261C62.8151 173.648 64.4981 174.11 65.9831 174.11C67.3691 174.11 68.3811 173.67 69.1731 173.12V174H71.8131V167.4H69.1731ZM78.9455 167.29C77.9225 167.29 76.9105 167.598 76.2175 168.302V165.2H73.5775V174H76.2175V173.098C76.9105 173.802 77.9225 174.11 78.9455 174.11C80.6505 174.11 82.5535 173.362 82.5535 170.7C82.5535 168.038 80.6505 167.29 78.9455 167.29ZM78.0655 171.91C76.8885 171.91 76.2175 171.668 76.2175 170.7C76.2175 169.732 76.8885 169.49 78.0655 169.49C79.2425 169.49 79.9135 169.732 79.9135 170.7C79.9135 171.668 79.2425 171.91 78.0655 171.91ZM89.9245 165.2V166.96H92.5645V165.2H89.9245ZM89.9245 167.4V174H92.5645V167.4H89.9245ZM94.2175 171.723C94.2175 173.791 96.4175 174.11 98.9145 174.11C101.412 174.11 103.172 173.791 103.172 171.778C103.172 170.051 101.511 169.897 98.9145 169.765C97.2425 169.677 96.9675 169.688 96.9675 169.413C96.9675 169.16 97.3525 169.16 98.6945 169.16C99.8715 169.16 100.312 169.16 100.312 169.512H102.952C102.952 167.609 101.247 167.29 98.8045 167.29C96.3625 167.29 94.3275 167.609 94.3275 169.49C94.3275 171.173 95.6585 171.404 98.6945 171.525C100.279 171.591 100.532 171.558 100.532 171.888C100.532 172.174 100.279 172.24 98.8045 172.24C97.2095 172.24 96.8575 172.097 96.8575 171.723H94.2175ZM114.946 167.29C113.725 167.29 112.295 167.532 110.975 167.961L111.833 169.831C113.043 169.567 114.011 169.49 114.858 169.49C115.738 169.49 116.574 169.523 116.574 170.315C115.969 170.095 115.265 169.974 114.341 169.974C112.416 169.974 110.436 170.425 110.436 172.141C110.436 173.571 111.756 174.11 113.263 174.11C114.407 174.11 115.551 173.945 116.574 173.197V174H119.214V170.733C119.192 168.214 117.652 167.29 114.946 167.29ZM116.574 171.844C115.914 172.13 114.946 172.35 114.055 172.35C113.384 172.35 113.076 172.295 113.076 171.932C113.076 171.514 113.604 171.404 114.825 171.404C115.584 171.404 116.156 171.459 116.574 171.569V171.844ZM126.589 171.723C126.589 173.791 128.789 174.11 131.286 174.11C133.783 174.11 135.543 173.791 135.543 171.778C135.543 170.051 133.882 169.897 131.286 169.765C129.614 169.677 129.339 169.688 129.339 169.413C129.339 169.16 129.724 169.16 131.066 169.16C132.243 169.16 132.683 169.16 132.683 169.512H135.323C135.323 167.609 133.618 167.29 131.176 167.29C128.734 167.29 126.699 167.609 126.699 169.49C126.699 171.173 128.03 171.404 131.066 171.525C132.65 171.591 132.903 171.558 132.903 171.888C132.903 172.174 132.65 172.24 131.176 172.24C129.581 172.24 129.229 172.097 129.229 171.723H126.589ZM141.571 174.11C144.376 174.11 146.059 173.142 146.059 170.7C146.059 168.258 144.376 167.29 141.571 167.29C138.766 167.29 137.083 168.258 137.083 170.7C137.083 173.142 138.766 174.11 141.571 174.11ZM141.571 171.91C140.394 171.91 139.723 171.668 139.723 170.7C139.723 169.732 140.394 169.49 141.571 169.49C142.748 169.49 143.419 169.732 143.419 170.7C143.419 171.668 142.748 171.91 141.571 171.91ZM147.598 170.7C147.598 173.142 149.281 174.11 152.086 174.11C154.693 174.11 156.332 173.274 156.552 171.195H153.857C153.648 171.756 153.032 171.91 152.086 171.91C150.909 171.91 150.238 171.668 150.238 170.7C150.238 169.732 150.909 169.49 152.086 169.49C153.032 169.49 153.648 169.644 153.857 170.205H156.552C156.332 168.126 154.693 167.29 152.086 167.29C149.281 167.29 147.598 168.258 147.598 170.7ZM158.202 165.2V166.96H160.842V165.2H158.202ZM158.202 167.4V174H160.842V167.4H158.202ZM167.005 167.29C165.784 167.29 164.354 167.532 163.034 167.961L163.892 169.831C165.102 169.567 166.07 169.49 166.917 169.49C167.797 169.49 168.633 169.523 168.633 170.315C168.028 170.095 167.324 169.974 166.4 169.974C164.475 169.974 162.495 170.425 162.495 172.141C162.495 173.571 163.815 174.11 165.322 174.11C166.466 174.11 167.61 173.945 168.633 173.197V174H171.273V170.733C171.251 168.214 169.711 167.29 167.005 167.29ZM168.633 171.844C167.973 172.13 167.005 172.35 166.114 172.35C165.443 172.35 165.135 172.295 165.135 171.932C165.135 171.514 165.663 171.404 166.884 171.404C167.643 171.404 168.215 171.459 168.633 171.569V171.844ZM173.035 165.2V174H175.675V165.2H173.035ZM187.562 167.29C186.341 167.29 184.911 167.532 183.591 167.961L184.449 169.831C185.659 169.567 186.627 169.49 187.474 169.49C188.354 169.49 189.19 169.523 189.19 170.315C188.585 170.095 187.881 169.974 186.957 169.974C185.032 169.974 183.052 170.425 183.052 172.141C183.052 173.571 184.372 174.11 185.879 174.11C187.023 174.11 188.167 173.945 189.19 173.197V174H191.83V170.733C191.808 168.214 190.268 167.29 187.562 167.29ZM189.19 171.844C188.53 172.13 187.562 172.35 186.671 172.35C186 172.35 185.692 172.295 185.692 171.932C185.692 171.514 186.22 171.404 187.441 171.404C188.2 171.404 188.772 171.459 189.19 171.569V171.844ZM198.852 167.29C197.829 167.29 196.817 167.598 196.124 168.302V167.4H193.484V176.75H196.124V173.098C196.817 173.802 197.829 174.11 198.852 174.11C200.557 174.11 202.46 173.362 202.46 170.7C202.46 168.038 200.557 167.29 198.852 167.29ZM197.972 171.91C196.795 171.91 196.124 171.668 196.124 170.7C196.124 169.732 196.795 169.49 197.972 169.49C199.149 169.49 199.82 169.732 199.82 170.7C199.82 171.668 199.149 171.91 197.972 171.91ZM209.475 167.29C208.452 167.29 207.44 167.598 206.747 168.302V167.4H204.107V176.75H206.747V173.098C207.44 173.802 208.452 174.11 209.475 174.11C211.18 174.11 213.083 173.362 213.083 170.7C213.083 168.038 211.18 167.29 209.475 167.29ZM208.595 171.91C207.418 171.91 206.747 171.668 206.747 170.7C206.747 169.732 207.418 169.49 208.595 169.49C209.772 169.49 210.443 169.732 210.443 170.7C210.443 171.668 209.772 171.91 208.595 171.91ZM227.01 169.6V167.4H224.315V165.64L221.675 166.3V167.4H220.344V169.6H221.675V172.053C221.675 173.483 222.687 174.11 224.733 174.11C225.602 174.11 226.383 174.055 227.01 173.945V171.8C226.251 171.91 225.921 171.91 225.327 171.91C224.557 171.91 224.315 171.591 224.315 170.964V169.6H227.01ZM233.037 174.11C235.842 174.11 237.525 173.142 237.525 170.7C237.525 168.258 235.842 167.29 233.037 167.29C230.232 167.29 228.549 168.258 228.549 170.7C228.549 173.142 230.232 174.11 233.037 174.11ZM233.037 171.91C231.86 171.91 231.189 171.668 231.189 170.7C231.189 169.732 231.86 169.49 233.037 169.49C234.214 169.49 234.885 169.732 234.885 170.7C234.885 171.668 234.214 171.91 233.037 171.91ZM244.789 171.723C244.789 173.791 246.989 174.11 249.486 174.11C251.983 174.11 253.743 173.791 253.743 171.778C253.743 170.051 252.082 169.897 249.486 169.765C247.814 169.677 247.539 169.688 247.539 169.413C247.539 169.16 247.924 169.16 249.266 169.16C250.443 169.16 250.883 169.16 250.883 169.512H253.523C253.523 167.609 251.818 167.29 249.376 167.29C246.934 167.29 244.899 167.609 244.899 169.49C244.899 171.173 246.23 171.404 249.266 171.525C250.85 171.591 251.103 171.558 251.103 171.888C251.103 172.174 250.85 172.24 249.376 172.24C247.781 172.24 247.429 172.097 247.429 171.723H244.789ZM261.223 167.29C259.837 167.29 258.825 167.73 258.033 168.28V165.2H255.393V174H258.033V170.436C258.55 169.941 259.375 169.6 260.156 169.6C261.344 169.6 261.751 170.084 261.751 171.217V174H264.391V170.139C264.391 167.752 262.708 167.29 261.223 167.29ZM270.448 167.29C269.227 167.29 267.797 167.532 266.477 167.961L267.335 169.831C268.545 169.567 269.513 169.49 270.36 169.49C271.24 169.49 272.076 169.523 272.076 170.315C271.471 170.095 270.767 169.974 269.843 169.974C267.918 169.974 265.938 170.425 265.938 172.141C265.938 173.571 267.258 174.11 268.765 174.11C269.909 174.11 271.053 173.945 272.076 173.197V174H274.716V170.733C274.694 168.214 273.154 167.29 270.448 167.29ZM272.076 171.844C271.416 172.13 270.448 172.35 269.557 172.35C268.886 172.35 268.578 172.295 268.578 171.932C268.578 171.514 269.106 171.404 270.327 171.404C271.086 171.404 271.658 171.459 272.076 171.569V171.844ZM281.573 167.29C280.495 167.29 279.593 167.631 279.01 168.5V167.4H276.37V174H279.01V170.436C279.769 169.6 280.792 169.49 281.727 169.49C282.211 169.49 282.706 169.556 283.322 169.71V167.51C282.882 167.4 282.343 167.29 281.573 167.29ZM289.134 172.02C288.408 172.02 287.671 171.844 287.451 171.14H293.71C293.71 168.258 291.961 167.29 289.244 167.29C286.549 167.29 284.756 168.258 284.756 170.7C284.756 173.142 286.549 174.11 289.134 174.11C291.851 174.11 293.27 173.274 293.6 171.525H291.015C290.476 171.954 290.091 172.02 289.134 172.02ZM289.233 169.16C289.937 169.16 290.597 169.226 290.894 169.82H287.572C287.869 169.226 288.529 169.16 289.233 169.16ZM307.585 167.4L305.748 171.987L303.834 167.4H300.974L303.724 174H304.934L303.834 176.75H306.694L310.445 167.4H307.585ZM315.59 174.11C318.395 174.11 320.078 173.142 320.078 170.7C320.078 168.258 318.395 167.29 315.59 167.29C312.785 167.29 311.102 168.258 311.102 170.7C311.102 173.142 312.785 174.11 315.59 174.11ZM315.59 171.91C314.413 171.91 313.742 171.668 313.742 170.7C313.742 169.732 314.413 169.49 315.59 169.49C316.767 169.49 317.438 169.732 317.438 170.7C317.438 171.668 316.767 171.91 315.59 171.91ZM328.086 167.4V170.964C327.569 171.459 326.744 171.8 325.963 171.8C324.775 171.8 324.368 171.316 324.368 170.183V167.4H321.728V171.261C321.728 173.648 323.411 174.11 324.896 174.11C326.282 174.11 327.294 173.67 328.086 173.12V174H330.726V167.4H328.086ZM337.693 167.29C336.615 167.29 335.713 167.631 335.13 168.5V167.4H332.49V174H335.13V170.436C335.889 169.6 336.912 169.49 337.847 169.49C338.331 169.49 338.826 169.556 339.442 169.71V167.51C339.002 167.4 338.463 167.29 337.693 167.29ZM56.57 184.3H47.11V186.72H50.41V192H53.27V186.72H56.57V184.3ZM67.2167 187.248C67.2167 185.532 66.0177 184.3 64.2687 184.3H58.2187V192H61.0787V190.196H62.7617L63.8287 192H67.2167L65.8527 189.789C66.6997 189.294 67.2167 188.37 67.2167 187.248ZM61.0787 186.72H63.7187C64.0047 186.72 64.3567 186.72 64.3567 187.248C64.3567 187.776 64.0047 187.776 63.7187 187.776H61.0787V186.72ZM76.2329 192H79.3789L76.1889 184.3H71.9429L68.7529 192H71.8989L72.4269 190.614H75.7049L76.2329 192ZM73.1749 188.634L74.0659 186.28L74.9569 188.634H73.1749ZM87.9871 184.3V188.843L84.6651 184.3H80.9251V192H83.7851V187.457L87.1071 192H90.8471V184.3H87.9871ZM92.5013 189.283C92.5013 191.571 94.2613 192.11 97.4183 192.11C100.575 192.11 102.335 191.571 102.335 189.448C102.335 187.435 100.454 187.226 97.4183 187.105C95.7463 187.039 95.4713 187.05 95.4713 186.753C95.4713 186.456 95.7463 186.39 97.0883 186.39C98.4853 186.39 99.1453 186.478 99.1453 186.885H102.005C102.005 184.916 100.311 184.19 97.3083 184.19C94.2723 184.19 92.6113 184.916 92.6113 186.61C92.6113 188.403 93.9423 188.975 97.4183 189.085C99.2223 189.14 99.4753 189.184 99.4753 189.514C99.4753 189.8 99.2223 189.91 97.5283 189.91C95.7133 189.91 95.3613 189.657 95.3613 189.283H92.5013ZM110.701 192H113.847L110.657 184.3H106.411L103.221 192H106.367L106.895 190.614H110.173L110.701 192ZM107.643 188.634L108.534 186.28L109.425 188.634H107.643ZM114.402 188.139C114.402 190.823 115.854 192.11 119.242 192.11C122.333 192.11 123.928 191.021 124.049 188.579H121.123C121.013 189.316 120.452 189.69 119.242 189.69C117.559 189.69 117.262 188.964 117.262 188.139C117.262 187.325 117.548 186.61 119.242 186.61C120.452 186.61 121.013 186.973 121.123 187.699H124.049C123.928 185.268 122.322 184.19 119.242 184.19C115.854 184.19 114.402 185.466 114.402 188.139ZM134.947 184.3H125.487V186.72H128.787V192H131.647V186.72H134.947V184.3ZM139.455 184.3H136.595V192H139.455V184.3ZM145.836 192.11C149.213 192.11 150.676 190.812 150.676 188.139C150.676 185.477 149.213 184.19 145.836 184.19C142.448 184.19 140.996 185.466 140.996 188.139C140.996 190.823 142.448 192.11 145.836 192.11ZM145.836 189.69C144.153 189.69 143.856 188.964 143.856 188.139C143.856 187.325 144.142 186.61 145.836 186.61C147.53 186.61 147.816 187.336 147.816 188.139C147.816 188.953 147.519 189.69 145.836 189.69ZM159.392 184.3V188.843L156.07 184.3H152.33V192H155.19V187.457L158.512 192H162.252V184.3H159.392ZM163.906 189.283C163.906 191.571 165.666 192.11 168.823 192.11C171.98 192.11 173.74 191.571 173.74 189.448C173.74 187.435 171.859 187.226 168.823 187.105C167.151 187.039 166.876 187.05 166.876 186.753C166.876 186.456 167.151 186.39 168.493 186.39C169.89 186.39 170.55 186.478 170.55 186.885H173.41C173.41 184.916 171.716 184.19 168.713 184.19C165.677 184.19 164.016 184.916 164.016 186.61C164.016 188.403 165.347 188.975 168.823 189.085C170.627 189.14 170.88 189.184 170.88 189.514C170.88 189.8 170.627 189.91 168.933 189.91C167.118 189.91 166.766 189.657 166.766 189.283H163.906ZM192.687 185.4L191.158 189.558L189.706 185.4H186.956L185.504 189.558L183.975 185.4H181.005L183.755 192H186.956L188.331 188.557L189.706 192H192.907L195.657 185.4H192.687ZM197.195 183.2V184.96H199.835V183.2H197.195ZM197.195 185.4V192H199.835V185.4H197.195ZM208.154 187.6V185.4H205.459V183.64L202.819 184.3V185.4H201.488V187.6H202.819V190.053C202.819 191.483 203.831 192.11 205.877 192.11C206.746 192.11 207.527 192.055 208.154 191.945V189.8C207.395 189.91 207.065 189.91 206.471 189.91C205.701 189.91 205.459 189.591 205.459 188.964V187.6H208.154ZM215.634 185.29C214.248 185.29 213.236 185.73 212.444 186.28V183.2H209.804V192H212.444V188.436C212.961 187.941 213.786 187.6 214.567 187.6C215.755 187.6 216.162 188.084 216.162 189.217V192H218.802V188.139C218.802 185.752 217.119 185.29 215.634 185.29ZM232.792 185.4L230.955 189.987L229.041 185.4H226.181L228.931 192H230.141L229.041 194.75H231.901L235.652 185.4H232.792ZM240.797 192.11C243.602 192.11 245.285 191.142 245.285 188.7C245.285 186.258 243.602 185.29 240.797 185.29C237.992 185.29 236.309 186.258 236.309 188.7C236.309 191.142 237.992 192.11 240.797 192.11ZM240.797 189.91C239.62 189.91 238.949 189.668 238.949 188.7C238.949 187.732 239.62 187.49 240.797 187.49C241.974 187.49 242.645 187.732 242.645 188.7C242.645 189.668 241.974 189.91 240.797 189.91ZM253.292 185.4V188.964C252.775 189.459 251.95 189.8 251.169 189.8C249.981 189.8 249.574 189.316 249.574 188.183V185.4H246.934V189.261C246.934 191.648 248.617 192.11 250.102 192.11C251.488 192.11 252.5 191.67 253.292 191.12V192H255.932V185.4H253.292ZM262.9 185.29C261.822 185.29 260.92 185.631 260.337 186.5V185.4H257.697V192H260.337V188.436C261.096 187.6 262.119 187.49 263.054 187.49C263.538 187.49 264.033 187.556 264.649 187.71V185.51C264.209 185.4 263.67 185.29 262.9 185.29ZM276.897 184.795C277.381 184.795 277.821 184.817 278.25 184.85V183.2C277.293 183.09 276.952 183.09 276.303 183.09C274.037 183.09 273.245 183.717 273.245 185.037V185.4H271.914V187.6H273.245V192H275.885V187.6H278.25V185.4H275.907C275.984 184.982 276.259 184.795 276.897 184.795ZM285.1 185.29C284.022 185.29 283.12 185.631 282.537 186.5V185.4H279.897V192H282.537V188.436C283.296 187.6 284.319 187.49 285.254 187.49C285.738 187.49 286.233 187.556 286.849 187.71V185.51C286.409 185.4 285.87 185.29 285.1 185.29ZM288.5 183.2V184.96H291.14V183.2H288.5ZM288.5 185.4V192H291.14V185.4H288.5ZM297.171 190.02C296.445 190.02 295.708 189.844 295.488 189.14H301.747C301.747 186.258 299.998 185.29 297.281 185.29C294.586 185.29 292.793 186.258 292.793 188.7C292.793 191.142 294.586 192.11 297.171 192.11C299.888 192.11 301.307 191.274 301.637 189.525H299.052C298.513 189.954 298.128 190.02 297.171 190.02ZM297.27 187.16C297.974 187.16 298.634 187.226 298.931 187.82H295.609C295.906 187.226 296.566 187.16 297.27 187.16ZM309.227 185.29C307.841 185.29 306.829 185.73 306.037 186.28V185.4H303.397V192H306.037V188.436C306.554 187.941 307.379 187.6 308.16 187.6C309.348 187.6 309.755 188.084 309.755 189.217V192H312.395V188.139C312.395 185.752 310.712 185.29 309.227 185.29ZM320.278 183.2V186.302C319.585 185.598 318.573 185.29 317.55 185.29C315.845 185.29 313.942 186.038 313.942 188.7C313.942 191.362 315.845 192.11 317.55 192.11C318.573 192.11 319.585 191.802 320.278 191.098V192H322.918V183.2H320.278ZM318.43 189.91C317.253 189.91 316.582 189.668 316.582 188.7C316.582 187.732 317.253 187.49 318.43 187.49C319.607 187.49 320.278 187.732 320.278 188.7C320.278 189.668 319.607 189.91 318.43 189.91ZM324.565 189.723C324.565 191.791 326.765 192.11 329.262 192.11C331.759 192.11 333.519 191.791 333.519 189.778C333.519 188.051 331.858 187.897 329.262 187.765C327.59 187.677 327.315 187.688 327.315 187.413C327.315 187.16 327.7 187.16 329.042 187.16C330.219 187.16 330.659 187.16 330.659 187.512H333.299C333.299 185.609 331.594 185.29 329.152 185.29C326.71 185.29 324.675 185.609 324.675 187.49C324.675 189.173 326.006 189.404 329.042 189.525C330.626 189.591 330.879 189.558 330.879 189.888C330.879 190.174 330.626 190.24 329.152 190.24C327.557 190.24 327.205 190.097 327.205 189.723H324.565ZM338.029 184.3H335.169L335.279 189.36H337.919L338.029 184.3ZM335.279 190.02V192H337.919V190.02H335.279Z" fill="white"/>
</svg>
