<svg width="92" height="100" viewBox="0 0 92 100" fill="none" xmlns="http://www.w3.org/2000/svg">
<g filter="url(#filter0_d_32_292)">
<rect x="16" y="14" width="60" height="60" rx="12" fill="white"/>
</g>
<rect x="16" y="14" width="60" height="60" rx="12" fill="url(#paint0_linear_32_292)"/>
<path d="M26 33H29C44.464 33 57 45.536 57 61V64H63C64.6568 64 66 62.6568 66 61C66 40.5655 49.4345 24 29 24C27.3431 24 26 25.3431 26 27V33Z" fill="url(#paint1_radial_32_292)"/>
<path d="M58 61H66C66 62.6569 64.6569 64 63 64H58V61Z" fill="url(#paint2_linear_32_292)"/>
<path d="M29 24L29 32H26L26 27C26 25.3431 27.3431 24 29 24Z" fill="url(#paint3_linear_32_292)"/>
<path d="M26 32H29C45.0163 32 58 44.9837 58 61V64H49V61C49 49.9543 40.0457 41 29 41H26V32Z" fill="url(#paint4_radial_32_292)"/>
<path d="M50 61H58V64H50V61Z" fill="url(#paint5_linear_32_292)"/>
<path d="M26 40L26 32L29 32L29 40H26Z" fill="url(#paint6_linear_32_292)"/>
<path d="M26 45C26 46.6569 27.3431 48 29 48C36.1797 48 42 53.8203 42 61C42 62.6569 43.3431 64 45 64H50V61C50 49.402 40.598 40 29 40H26V45Z" fill="url(#paint7_radial_32_292)"/>
<path d="M42 61H50V64H45C43.3431 64 42 62.6569 42 61Z" fill="url(#paint8_radial_32_292)"/>
<path d="M29 48C27.3431 48 26 46.6569 26 45L26 40L29 40L29 48Z" fill="url(#paint9_radial_32_292)"/>
<path d="M18.3465 96.1436C18.9959 96.1436 19.3787 95.7471 19.3787 95.0703V92.3906H21.1355L22.7762 95.3643C23.1111 95.9658 23.3367 96.1436 23.8289 96.1436C24.4305 96.1436 24.868 95.7471 24.868 95.2002C24.868 94.9609 24.8201 94.7832 24.6492 94.4893L23.2273 92.0283C24.3143 91.5635 24.9227 90.5107 24.9227 89.2803C24.9227 87.332 23.6238 86.1357 21.3543 86.1357H18.3465C17.6971 86.1357 17.3143 86.5322 17.3143 87.209V95.0703C17.3143 95.7471 17.7039 96.1436 18.3465 96.1436ZM19.3787 90.8936V87.749H21.1355C22.1609 87.749 22.8035 88.3643 22.8035 89.3213C22.8035 90.2988 22.1951 90.8936 21.1561 90.8936H19.3787ZM28.8381 96.1162C29.7541 96.1162 30.6701 95.6582 31.0803 94.8789H31.1213V95.2549C31.1623 95.8428 31.5383 96.1436 32.0783 96.1436C32.6457 96.1436 33.049 95.8018 33.049 95.1387V90.9619C33.049 89.4854 31.8254 88.5146 29.9455 88.5146C28.4279 88.5146 27.2521 89.0547 26.9104 89.9297C26.842 90.0801 26.8078 90.2236 26.8078 90.3809C26.8078 90.832 27.1564 91.1465 27.6418 91.1465C27.9631 91.1465 28.216 91.0234 28.4348 90.7773C28.8791 90.2031 29.2482 90.0049 29.8566 90.0049C30.6086 90.0049 31.0871 90.4014 31.0871 91.085V91.5703L29.2414 91.6797C27.4094 91.7891 26.384 92.5615 26.384 93.8945C26.384 95.2139 27.4436 96.1162 28.8381 96.1162ZM29.4943 94.6738C28.8244 94.6738 28.3732 94.332 28.3732 93.7852C28.3732 93.2656 28.7971 92.9307 29.5422 92.876L31.0871 92.7803V93.3135C31.0871 94.1064 30.3693 94.6738 29.4943 94.6738ZM35.9732 87.7627C36.5748 87.7627 37.0396 87.3047 37.0396 86.7305C37.0396 86.1494 36.5748 85.6982 35.9732 85.6982C35.3717 85.6982 34.9068 86.1494 34.9068 86.7305C34.9068 87.3047 35.3717 87.7627 35.9732 87.7627ZM35.9732 96.1436C36.5885 96.1436 36.9713 95.7539 36.9713 95.1045V89.5674C36.9713 88.918 36.5885 88.5215 35.9732 88.5215C35.3512 88.5215 34.9752 88.918 34.9752 89.5674V95.1045C34.9752 95.7539 35.3512 96.1436 35.9732 96.1436ZM39.9023 96.1436C40.4902 96.1436 40.9004 95.7881 40.9004 95.1045V91.7959C40.9004 90.8457 41.4678 90.1895 42.3633 90.1895C43.2588 90.1895 43.71 90.7363 43.71 91.6934V95.1045C43.71 95.7881 44.1201 96.1436 44.708 96.1436C45.2891 96.1436 45.7061 95.7881 45.7061 95.1045V91.2764C45.7061 89.5605 44.79 88.5352 43.1631 88.5352C42.0352 88.5352 41.2969 89.0342 40.9072 89.9434H40.8662V89.5332C40.8662 88.9043 40.4697 88.5215 39.8682 88.5215C39.2666 88.5215 38.9043 88.9043 38.9043 89.5264V95.1045C38.9043 95.7881 39.3213 96.1436 39.9023 96.1436ZM48.5961 96.1436C49.1771 96.1436 49.5873 95.7949 49.5873 95.1318V94.7422H49.6283C50.0385 95.5967 50.852 96.1162 51.9252 96.1162C53.7777 96.1162 54.8988 94.6943 54.8988 92.3359C54.8988 89.9707 53.7709 88.5557 51.9184 88.5557C50.8793 88.5557 50.059 89.0752 49.6557 89.9434H49.6146V87.0312C49.6146 86.3477 49.2045 85.9854 48.6166 85.9854C48.0355 85.9854 47.6186 86.3477 47.6186 87.0312V95.1318C47.6186 95.8018 48.0219 96.1436 48.5961 96.1436ZM51.2416 94.5098C50.2709 94.5098 49.6078 93.6621 49.6078 92.3359C49.6078 91.0234 50.2709 90.1553 51.2416 90.1553C52.2328 90.1553 52.8549 91.0029 52.8549 92.3359C52.8549 93.6758 52.2328 94.5098 51.2416 94.5098ZM59.9012 96.1572C62.116 96.1572 63.5311 94.7422 63.5311 92.3291C63.5311 89.9502 62.0955 88.5146 59.9012 88.5146C57.7068 88.5146 56.2713 89.957 56.2713 92.3291C56.2713 94.7354 57.6863 96.1572 59.9012 96.1572ZM59.9012 94.6328C58.9168 94.6328 58.2947 93.8057 58.2947 92.3359C58.2947 90.8799 58.9305 90.0391 59.9012 90.0391C60.8719 90.0391 61.5008 90.8799 61.5008 92.3359C61.5008 93.8057 60.8787 94.6328 59.9012 94.6328ZM67.5559 96.1436C68.2668 96.1436 68.6633 95.8223 68.8342 95.0977L69.9416 90.8184H69.9826L71.0969 95.084C71.2678 95.8291 71.6574 96.1436 72.3889 96.1436C73.0793 96.1436 73.4621 95.8154 73.6672 95.0908L75.1437 89.9775C75.2189 89.7178 75.2531 89.5537 75.2531 89.3691C75.2531 88.8701 74.8635 88.5215 74.3098 88.5215C73.8176 88.5215 73.4963 88.8223 73.3869 89.3555L72.2932 94.1064H72.2521L71.1105 89.4375C70.9807 88.8428 70.591 88.5215 69.9963 88.5215C69.3879 88.5215 68.9982 88.8428 68.8684 89.4375L67.7336 94.1064H67.6926L66.6057 89.3691C66.4895 88.8223 66.1682 88.5215 65.6691 88.5215C65.1086 88.5215 64.7053 88.877 64.7053 89.376C64.7053 89.5674 64.7395 89.7314 64.8146 89.9912L66.2912 95.0977C66.5031 95.8223 66.8654 96.1436 67.5559 96.1436Z" fill="white"/>
<defs>
<filter id="filter0_d_32_292" x="0" y="0" width="92" height="92" filterUnits="userSpaceOnUse" color-interpolation-filters="sRGB">
<feFlood flood-opacity="0" result="BackgroundImageFix"/>
<feColorMatrix in="SourceAlpha" type="matrix" values="0 0 0 0 0 0 0 0 0 0 0 0 0 0 0 0 0 0 127 0" result="hardAlpha"/>
<feOffset dy="2"/>
<feGaussianBlur stdDeviation="8"/>
<feComposite in2="hardAlpha" operator="out"/>
<feColorMatrix type="matrix" values="0 0 0 0 0 0 0 0 0 0 0 0 0 0 0 0 0 0 0.16 0"/>
<feBlend mode="normal" in2="BackgroundImageFix" result="effect1_dropShadow_32_292"/>
<feBlend mode="normal" in="SourceGraphic" in2="effect1_dropShadow_32_292" result="shape"/>
</filter>
<linearGradient id="paint0_linear_32_292" x1="46" y1="14" x2="46" y2="74" gradientUnits="userSpaceOnUse">
<stop stop-color="#174299"/>
<stop offset="1" stop-color="#001E59"/>
</linearGradient>
<radialGradient id="paint1_radial_32_292" cx="0" cy="0" r="1" gradientUnits="userSpaceOnUse" gradientTransform="translate(29 61) rotate(-90) scale(37)">
<stop offset="0.770277" stop-color="#FF4000"/>
<stop offset="1" stop-color="#8754C9"/>
</radialGradient>
<linearGradient id="paint2_linear_32_292" x1="57.5" y1="62.5" x2="66" y2="62.5" gradientUnits="userSpaceOnUse">
<stop stop-color="#FF4000"/>
<stop offset="1" stop-color="#8754C9"/>
</linearGradient>
<linearGradient id="paint3_linear_32_292" x1="27.5" y1="24" x2="27.5" y2="32.5" gradientUnits="userSpaceOnUse">
<stop stop-color="#8754C9"/>
<stop offset="1" stop-color="#FF4000"/>
</linearGradient>
<radialGradient id="paint4_radial_32_292" cx="0" cy="0" r="1" gradientUnits="userSpaceOnUse" gradientTransform="translate(29 61) rotate(-90) scale(29)">
<stop offset="0.723929" stop-color="#FFF700"/>
<stop offset="1" stop-color="#FF9901"/>
</radialGradient>
<linearGradient id="paint5_linear_32_292" x1="50" y1="62.5" x2="58" y2="62.5" gradientUnits="userSpaceOnUse">
<stop stop-color="#FFF700"/>
<stop offset="1" stop-color="#FF9901"/>
</linearGradient>
<linearGradient id="paint6_linear_32_292" x1="27.5" y1="40" x2="27.5" y2="32" gradientUnits="userSpaceOnUse">
<stop stop-color="#FFF700"/>
<stop offset="1" stop-color="#FF9901"/>
</linearGradient>
<radialGradient id="paint7_radial_32_292" cx="0" cy="0" r="1" gradientUnits="userSpaceOnUse" gradientTransform="translate(29 61) rotate(-90) scale(21)">
<stop offset="0.59513" stop-color="#00AAFF"/>
<stop offset="1" stop-color="#01DA40"/>
</radialGradient>
<radialGradient id="paint8_radial_32_292" cx="0" cy="0" r="1" gradientUnits="userSpaceOnUse" gradientTransform="translate(41.5 62.5) scale(8.5 22.6667)">
<stop stop-color="#00AAFF"/>
<stop offset="1" stop-color="#01DA40"/>
</radialGradient>
<radialGradient id="paint9_radial_32_292" cx="0" cy="0" r="1" gradientUnits="userSpaceOnUse" gradientTransform="translate(27.5 48.5) rotate(-90) scale(8.5 161.185)">
<stop stop-color="#00AAFF"/>
<stop offset="1" stop-color="#01DA40"/>
</radialGradient>
</defs>
</svg>
