<svg width="24" height="24" viewBox="0 0 24 24" fill="none" xmlns="http://www.w3.org/2000/svg">
<path d="M20.4849 3H16.4929L16.9929 8C16.9929 8 17.9929 9 19.4929 9C20.2803 9.00104 21.041 8.71441 21.6319 8.194C21.6944 8.13563 21.7409 8.0623 21.7672 7.98094C21.7934 7.89958 21.7985 7.81287 21.7819 7.729L21.0759 3.5C21.0523 3.36029 20.98 3.23345 20.8718 3.14194C20.7637 3.05042 20.6266 3.00014 20.4849 3V3Z" stroke="white" stroke-width="2"/>
<path d="M16.4929 3L16.9929 8C16.9929 8 15.9929 9 14.4929 9C12.9929 9 11.9929 8 11.9929 8V3H16.4929Z" stroke="white" stroke-width="2"/>
<path d="M11.9929 3V8C11.9929 8 10.9929 9 9.49292 9C7.99292 9 6.99292 8 6.99292 8L7.49292 3H11.9929Z" stroke="white" stroke-width="2"/>
<path d="M7.49309 3H3.50209C3.36008 2.99995 3.22266 3.05026 3.11426 3.142C3.00587 3.23373 2.93352 3.36094 2.91009 3.501L2.20509 7.73C2.17609 7.902 2.22509 8.079 2.35509 8.195C2.68309 8.485 3.41609 9.001 4.49309 9.001C5.99309 9.001 6.99309 8.001 6.99309 8.001L7.49309 3.001V3Z" stroke="white" stroke-width="2"/>
<path d="M3 9V19C3 19.5304 3.21071 20.0391 3.58579 20.4142C3.96086 20.7893 4.46957 21 5 21H19C19.5304 21 20.0391 20.7893 20.4142 20.4142C20.7893 20.0391 21 19.5304 21 19V9" stroke="white" stroke-width="2"/>
<path d="M14.833 21V15C14.833 14.4696 14.6223 13.9609 14.2472 13.5858C13.8721 13.2107 13.3634 13 12.833 13H10.833C10.3026 13 9.79387 13.2107 9.41879 13.5858C9.04372 13.9609 8.83301 14.4696 8.83301 15V21" stroke="white" stroke-width="2" stroke-miterlimit="16"/>
</svg>
