<svg width="24" height="24" viewBox="0 0 24 24" fill="none" xmlns="http://www.w3.org/2000/svg">
<path d="M5 19L7.333 20H16.667L19 19M8 22.01L8.01 21.999M16 22.01L16.01 21.999M7 7.833L10 6.333C12 5.333 14.27 6.901 14.27 6.901L9.962 10.036L14 13.334V17.334M9.549 13.345L8.309 14.172H5M15.165 9.21H17.887M17 6C17.5304 6 18.0391 5.78929 18.4142 5.41421C18.7893 5.03914 19 4.53043 19 4C19 3.46957 18.7893 2.96086 18.4142 2.58579C18.0391 2.21071 17.5304 2 17 2C16.4696 2 15.9609 2.21071 15.5858 2.58579C15.2107 2.96086 15 3.46957 15 4C15 4.53043 15.2107 5.03914 15.5858 5.41421C15.9609 5.78929 16.4696 6 17 6Z" stroke="white" stroke-width="2.5" stroke-linecap="round" stroke-linejoin="round"/>
</svg>
