<svg width="92" height="100" viewBox="0 0 92 100" fill="none" xmlns="http://www.w3.org/2000/svg">
<g filter="url(#filter0_d_32_295)">
<rect x="16" y="14" width="60" height="60" rx="12" fill="white"/>
</g>
<rect x="16" y="14" width="60" height="60" rx="12" fill="#3B99FC"/>
<path d="M33.9781 36.2297C40.6177 29.5901 51.3827 29.5901 58.0223 36.2297L58.8214 37.0288C59.1534 37.3608 59.1534 37.899 58.8214 38.231L56.0879 40.9645C55.9219 41.1305 55.6528 41.1305 55.4868 40.9645L54.3871 39.8649C49.7552 35.2329 42.2453 35.2329 37.6133 39.8649L36.4357 41.0425C36.2697 41.2085 36.0006 41.2085 35.8346 41.0425L33.1011 38.309C32.7691 37.977 32.7691 37.4388 33.1011 37.1068L33.9781 36.2297ZM63.6755 41.8829L66.1084 44.3158C66.4403 44.6478 66.4403 45.186 66.1084 45.518L55.1385 56.488C54.8065 56.82 54.2683 56.82 53.9363 56.488C53.9363 56.488 53.9363 56.488 53.9363 56.488L46.1506 48.7023C46.0676 48.6193 45.933 48.6193 45.85 48.7023C45.85 48.7023 45.85 48.7023 45.85 48.7023L38.0644 56.488C37.7325 56.82 37.1942 56.82 36.8622 56.488C36.8622 56.488 36.8622 56.488 36.8622 56.488L25.8921 45.5179C25.5601 45.1859 25.5601 44.6476 25.8921 44.3156L28.3249 41.8828C28.6569 41.5508 29.1951 41.5508 29.5271 41.8828L37.313 49.6687C37.396 49.7517 37.5305 49.7517 37.6135 49.6687C37.6135 49.6687 37.6135 49.6687 37.6135 49.6687L45.399 41.8828C45.7309 41.5508 46.2692 41.5508 46.6012 41.8828C46.6012 41.8828 46.6012 41.8828 46.6012 41.8828L54.387 49.6687C54.47 49.7516 54.6046 49.7516 54.6876 49.6687L62.4733 41.8829C62.8053 41.551 63.3435 41.551 63.6755 41.8829Z" fill="white"/>
<path d="M10.2072 96.1299C10.8566 96.1299 11.2258 95.8086 11.424 95.084L13.0578 89.2598H13.1193L14.76 95.084C14.9582 95.8223 15.3205 96.1299 15.9836 96.1299C16.6193 96.1299 16.9748 95.8154 17.1799 95.0908L19.2443 87.6123C19.3127 87.3525 19.3537 87.1064 19.3537 86.9287C19.3537 86.3545 18.9641 85.999 18.3352 85.999C17.7951 85.999 17.467 86.293 17.3371 86.8877L15.8605 93.2793H15.8059L14.1447 86.9082C13.9943 86.2998 13.6525 85.999 13.092 85.999C12.5178 85.999 12.1896 86.2793 12.0324 86.9219L10.3713 93.2793H10.3166L8.84004 86.8877C8.71699 86.2998 8.38887 85.999 7.84883 85.999C7.21992 85.999 6.83027 86.3545 6.83027 86.9287C6.83027 87.1133 6.87129 87.3594 6.93965 87.6123L8.99726 95.0771C9.20234 95.8154 9.55781 96.1299 10.2072 96.1299ZM22.3395 96.1162C23.2555 96.1162 24.1715 95.6582 24.5816 94.8789H24.6227V95.2549C24.6637 95.8428 25.0396 96.1436 25.5797 96.1436C26.1471 96.1436 26.5504 95.8018 26.5504 95.1387V90.9619C26.5504 89.4854 25.3268 88.5146 23.4469 88.5146C21.9293 88.5146 20.7535 89.0547 20.4117 89.9297C20.3434 90.0801 20.3092 90.2236 20.3092 90.3809C20.3092 90.832 20.6578 91.1465 21.1432 91.1465C21.4645 91.1465 21.7174 91.0234 21.9361 90.7773C22.3805 90.2031 22.7496 90.0049 23.358 90.0049C24.11 90.0049 24.5885 90.4014 24.5885 91.085V91.5703L22.7428 91.6797C20.9107 91.7891 19.8854 92.5615 19.8854 93.8945C19.8854 95.2139 20.9449 96.1162 22.3395 96.1162ZM22.9957 94.6738C22.3258 94.6738 21.8746 94.332 21.8746 93.7852C21.8746 93.2656 22.2984 92.9307 23.0436 92.876L24.5885 92.7803V93.3135C24.5885 94.1064 23.8707 94.6738 22.9957 94.6738ZM29.4883 96.1436C30.0762 96.1436 30.4863 95.7881 30.4863 95.1045V87.0312C30.4863 86.3477 30.0762 85.9854 29.4883 85.9854C28.9072 85.9854 28.4902 86.3477 28.4902 87.0312V95.1045C28.4902 95.7881 28.9072 96.1436 29.4883 96.1436ZM33.4789 96.1436C34.0668 96.1436 34.477 95.7881 34.477 95.1045V87.0312C34.477 86.3477 34.0668 85.9854 33.4789 85.9854C32.8979 85.9854 32.4809 86.3477 32.4809 87.0312V95.1045C32.4809 95.7881 32.8979 96.1436 33.4789 96.1436ZM39.7937 96.1572C41.2088 96.1572 42.3436 95.624 42.8289 94.7217C42.9178 94.5576 42.9656 94.3936 42.9656 94.2363C42.9656 93.7783 42.617 93.5049 42.1863 93.5049C41.9266 93.5049 41.7488 93.5801 41.5369 93.7988C40.9969 94.4346 40.5184 94.6807 39.7869 94.6807C38.7752 94.6807 38.1189 93.9697 38.1189 92.8828V92.7939H42.3025C42.8562 92.7939 43.1707 92.4795 43.1707 91.9258C43.1707 89.9365 41.7762 88.5146 39.698 88.5146C37.5311 88.5146 36.157 90.0117 36.157 92.3701C36.157 94.7422 37.5037 96.1572 39.7937 96.1572ZM38.1395 91.5703C38.2078 90.6338 38.8436 89.9912 39.7186 89.9912C40.5936 89.9912 41.2088 90.6133 41.2498 91.5703H38.1395ZM45.3361 94.127C45.3361 95.4189 46.0129 96.082 47.3459 96.082H47.4143C48.2551 96.082 48.8293 95.7812 48.8293 95.1934C48.8293 94.7285 48.5627 94.5234 48.0705 94.4688L47.9406 94.4551C47.51 94.4209 47.3322 94.2021 47.3322 93.6826V90.1758H48.0363C48.508 90.1758 48.802 89.8818 48.802 89.4238C48.802 88.9658 48.508 88.6719 48.0363 88.6719H47.3322V87.8584C47.3322 87.2158 46.9562 86.8193 46.3342 86.8193C45.7121 86.8193 45.3361 87.2158 45.3361 87.8584V88.6719H44.9533C44.4816 88.6719 44.1809 88.959 44.1809 89.4238C44.1809 89.8887 44.4816 90.1758 44.9533 90.1758H45.3361V94.127ZM54.9459 96.1641C56.8121 96.1641 58.2818 95.3232 58.8971 93.9561C58.9996 93.7168 59.0543 93.498 59.0543 93.2656C59.0543 92.7188 58.6715 92.3496 58.0904 92.3496C57.6529 92.3496 57.3932 92.5342 57.1812 92.999C56.7369 93.9902 55.9576 94.4619 54.9186 94.4619C53.3395 94.4619 52.3482 93.1631 52.3482 91.0576C52.3482 88.9795 53.3531 87.6738 54.9117 87.6738C55.8961 87.6738 56.7027 88.1797 57.1539 89.1846C57.3795 89.6631 57.6734 89.8682 58.1383 89.8682C58.6852 89.8682 59.0475 89.5195 59.0475 88.9795C59.0475 88.7334 58.9791 88.4668 58.8424 88.207C58.1656 86.7852 56.7369 85.9648 54.8912 85.9648C52.0543 85.9648 50.2428 87.8857 50.2428 91.0645C50.2428 94.25 52.0201 96.1641 54.9459 96.1641ZM64.3232 96.1572C66.5381 96.1572 67.9531 94.7422 67.9531 92.3291C67.9531 89.9502 66.5176 88.5146 64.3232 88.5146C62.1289 88.5146 60.6934 89.957 60.6934 92.3291C60.6934 94.7354 62.1084 96.1572 64.3232 96.1572ZM64.3232 94.6328C63.3389 94.6328 62.7168 93.8057 62.7168 92.3359C62.7168 90.8799 63.3525 90.0391 64.3232 90.0391C65.2939 90.0391 65.9229 90.8799 65.9229 92.3359C65.9229 93.8057 65.3008 94.6328 64.3232 94.6328ZM70.8842 96.082C71.4926 96.082 71.9848 95.5898 71.9848 94.9814C71.9848 94.3662 71.4926 93.8809 70.8842 93.8809C70.2689 93.8809 69.7836 94.3662 69.7836 94.9814C69.7836 95.5898 70.2689 96.082 70.8842 96.082ZM74.6303 96.082C75.2387 96.082 75.7309 95.5898 75.7309 94.9814C75.7309 94.3662 75.2387 93.8809 74.6303 93.8809C74.015 93.8809 73.5297 94.3662 73.5297 94.9814C73.5297 95.5898 74.015 96.082 74.6303 96.082ZM78.3764 96.082C78.9848 96.082 79.477 95.5898 79.477 94.9814C79.477 94.3662 78.9848 93.8809 78.3764 93.8809C77.7611 93.8809 77.2758 94.3662 77.2758 94.9814C77.2758 95.5898 77.7611 96.082 78.3764 96.082Z" fill="white"/>
<defs>
<filter id="filter0_d_32_295" x="0" y="0" width="92" height="92" filterUnits="userSpaceOnUse" color-interpolation-filters="sRGB">
<feFlood flood-opacity="0" result="BackgroundImageFix"/>
<feColorMatrix in="SourceAlpha" type="matrix" values="0 0 0 0 0 0 0 0 0 0 0 0 0 0 0 0 0 0 127 0" result="hardAlpha"/>
<feOffset dy="2"/>
<feGaussianBlur stdDeviation="8"/>
<feComposite in2="hardAlpha" operator="out"/>
<feColorMatrix type="matrix" values="0 0 0 0 0 0 0 0 0 0 0 0 0 0 0 0 0 0 0.16 0"/>
<feBlend mode="normal" in2="BackgroundImageFix" result="effect1_dropShadow_32_295"/>
<feBlend mode="normal" in="SourceGraphic" in2="effect1_dropShadow_32_295" result="shape"/>
</filter>
</defs>
</svg>
